<?xml version="1.0" encoding="UTF-8" standalone="no"?>
<svg
   viewBox="0 0 5.821 5.821"
   height="22"
   width="22"
   version="1.1"
   id="svg68"
   sodipodi:docname="xopp-default.svg"
   xml:space="preserve"
   inkscape:version="1.3 (0e150ed6c4, 2023-07-21)"
   xmlns:inkscape="http://www.inkscape.org/namespaces/inkscape"
   xmlns:sodipodi="http://sodipodi.sourceforge.net/DTD/sodipodi-0.dtd"
   xmlns:xlink="http://www.w3.org/1999/xlink"
   xmlns="http://www.w3.org/2000/svg"
   xmlns:svg="http://www.w3.org/2000/svg"><sodipodi:namedview
     id="namedview68"
     pagecolor="#505050"
     bordercolor="#eeeeee"
     borderopacity="1"
     inkscape:showpageshadow="0"
     inkscape:pageopacity="0"
     inkscape:pagecheckerboard="0"
     inkscape:deskcolor="#505050"
     inkscape:zoom="9.9557421"
     inkscape:cx="13.560014"
     inkscape:cy="26.06536"
     inkscape:window-width="1278"
     inkscape:window-height="1401"
     inkscape:window-x="1273"
     inkscape:window-y="0"
     inkscape:window-maximized="0"
     inkscape:current-layer="svg68" /><defs
     id="defs57"><linearGradient
       id="j"><stop
         style="stop-color:#3689e6;stop-opacity:1"
         offset="0"
         id="stop1" /><stop
         style="stop-color:#64baff;stop-opacity:1"
         offset="1"
         id="stop2" /></linearGradient><linearGradient
       xlink:href="#j"
       id="a"
       gradientUnits="userSpaceOnUse"
       x1="13.013"
       y1="19.627"
       x2="13.071"
       y2="-2.197" /><linearGradient
       xlink:href="#j"
       id="b"
       x1="15.897"
       y1="20.63"
       x2="15.94"
       y2="0"
       gradientUnits="userSpaceOnUse" /><linearGradient
       id="z"><stop
         offset="0"
         style="stop-color:#f9c440;stop-opacity:1"
         id="stop3" /><stop
         offset="1"
         style="stop-color:#ffe16b;stop-opacity:1"
         id="stop4" /></linearGradient><linearGradient
       id="u"><stop
         style="stop-color:#c6f27b;stop-opacity:1"
         offset="0"
         id="stop5" /><stop
         style="stop-color:#93d049;stop-opacity:1"
         offset="1"
         id="stop6" /></linearGradient><linearGradient
       id="t"><stop
         style="stop-color:#c396eb;stop-opacity:1"
         offset="0"
         id="stop7" /><stop
         style="stop-color:#9d68d7;stop-opacity:1"
         offset="1"
         id="stop8" /></linearGradient><linearGradient
       id="f"><stop
         offset="0"
         style="stop-color:#cdf87e;stop-opacity:1"
         id="stop9" /><stop
         offset=".262"
         style="stop-color:#a2e34f;stop-opacity:1"
         id="stop10" /><stop
         offset=".661"
         style="stop-color:#68b723;stop-opacity:1"
         id="stop11" /><stop
         offset="1"
         style="stop-color:#1d7e0d;stop-opacity:1"
         id="stop12" /></linearGradient><linearGradient
       id="k"><stop
         style="stop-color:#fff;stop-opacity:1"
         offset="0"
         id="stop13" /><stop
         style="stop-color:#fff;stop-opacity:.23529412"
         offset=".002"
         id="stop14" /><stop
         style="stop-color:#fff;stop-opacity:.15686275"
         offset=".392"
         id="stop15" /><stop
         style="stop-color:#fff;stop-opacity:.39215687"
         offset="1"
         id="stop16" /></linearGradient><linearGradient
       id="l"><stop
         offset="0"
         style="stop-color:#000;stop-opacity:0"
         id="stop17" /><stop
         offset=".5"
         style="stop-color:#000;stop-opacity:1"
         id="stop18" /><stop
         offset="1"
         style="stop-color:#000;stop-opacity:0"
         id="stop19" /></linearGradient><linearGradient
       id="g"><stop
         offset="0"
         style="stop-color:#000;stop-opacity:1"
         id="stop20" /><stop
         offset="1"
         style="stop-color:#000;stop-opacity:0"
         id="stop21" /></linearGradient><linearGradient
       id="m"><stop
         offset="0"
         style="stop-color:#f4f4f4;stop-opacity:1"
         id="stop22" /><stop
         offset="1"
         style="stop-color:#dbdbdb;stop-opacity:1"
         id="stop23" /></linearGradient><linearGradient
       id="n"><stop
         style="stop-color:#fff;stop-opacity:1"
         offset="0"
         id="stop24" /><stop
         style="stop-color:#fff;stop-opacity:.23529412"
         offset="0"
         id="stop25" /><stop
         style="stop-color:#fff;stop-opacity:.15686275"
         offset="1"
         id="stop26" /><stop
         style="stop-color:#fff;stop-opacity:.39215687"
         offset="1"
         id="stop27" /></linearGradient><linearGradient
       id="o"><stop
         style="stop-color:#000;stop-opacity:.31782946"
         offset="0"
         id="stop28" /><stop
         style="stop-color:#000;stop-opacity:.24031007"
         offset="1"
         id="stop29" /></linearGradient><linearGradient
       id="p"><stop
         style="stop-color:#ffa154;stop-opacity:1"
         offset="0"
         id="stop30" /><stop
         style="stop-color:#cc3b02;stop-opacity:1"
         offset="1"
         id="stop31" /></linearGradient><linearGradient
       id="s"><stop
         offset="0"
         style="stop-color:#93d049;stop-opacity:1"
         id="stop32" /><stop
         offset="1"
         style="stop-color:#378a04;stop-opacity:1"
         id="stop33" /></linearGradient><linearGradient
       id="q"><stop
         style="stop-color:#fff;stop-opacity:1"
         offset="0"
         id="stop34" /><stop
         style="stop-color:#fff;stop-opacity:.23529412"
         offset=".063"
         id="stop35" /><stop
         style="stop-color:#fff;stop-opacity:.15686275"
         offset=".951"
         id="stop36" /><stop
         style="stop-color:#fff;stop-opacity:.39215687"
         offset="1"
         id="stop37" /></linearGradient><linearGradient
       id="h"><stop
         style="stop-color:#181818;stop-opacity:1"
         offset="0"
         id="stop38" /><stop
         style="stop-color:#181818;stop-opacity:0"
         offset="1"
         id="stop39" /></linearGradient><linearGradient
       id="r"><stop
         style="stop-color:#181818;stop-opacity:0"
         offset="0"
         id="stop40" /><stop
         style="stop-color:#181818;stop-opacity:1"
         offset=".5"
         id="stop41" /><stop
         style="stop-color:#181818;stop-opacity:0"
         offset="1"
         id="stop42" /></linearGradient><linearGradient
       xlink:href="#t"
       id="A"
       gradientUnits="userSpaceOnUse"
       x1="61.558"
       y1="194.856"
       x2="176.621"
       y2="55.669" /><linearGradient
       xlink:href="#u"
       id="B"
       gradientUnits="userSpaceOnUse"
       x1="128.265"
       y1="22.77"
       x2="133.458"
       y2="228.819" /><linearGradient
       id="v"><stop
         style="stop-color:#fff;stop-opacity:1"
         offset="0"
         id="stop43" /><stop
         style="stop-color:#fff;stop-opacity:.23529412"
         offset=".063"
         id="stop44" /><stop
         style="stop-color:#fff;stop-opacity:.15686275"
         offset=".951"
         id="stop45" /><stop
         style="stop-color:#fff;stop-opacity:.39215687"
         offset="1"
         id="stop46" /></linearGradient><linearGradient
       id="w"><stop
         offset="0"
         style="stop-color:#f282f1;stop-opacity:1"
         id="stop47" /><stop
         offset="1"
         style="stop-color:#a56de2;stop-opacity:1"
         id="stop48" /></linearGradient><linearGradient
       id="x"><stop
         style="stop-color:#770087;stop-opacity:1"
         offset="0"
         id="stop49" /><stop
         style="stop-color:#452981;stop-opacity:1"
         offset="1"
         id="stop50" /></linearGradient><linearGradient
       id="y"><stop
         style="stop-color:#a00"
         offset="0"
         id="stop51" /><stop
         style="stop-color:#a00;stop-opacity:0"
         offset="1"
         id="stop52" /></linearGradient><linearGradient
       id="i"><stop
         offset="0"
         style="stop-color:#737373;stop-opacity:1"
         id="stop53" /><stop
         offset=".262"
         style="stop-color:#636363;stop-opacity:1"
         id="stop54" /><stop
         offset=".705"
         style="stop-color:#4b4b4b;stop-opacity:1"
         id="stop55" /><stop
         offset="1"
         style="stop-color:#3f3f3f;stop-opacity:1"
         id="stop56" /></linearGradient><linearGradient
       xlink:href="#z"
       id="C"
       gradientUnits="userSpaceOnUse"
       gradientTransform="rotate(.427 178009.919 491.325) scale(4.53811)"
       x1="2.7"
       y1="296.505"
       x2="2.69"
       y2="291.933" /><linearGradient
       xlink:href="#z"
       id="c"
       gradientUnits="userSpaceOnUse"
       gradientTransform="translate(-.37 -59.002) scale(1.2007)"
       x1="2.7"
       y1="296.505"
       x2="2.69"
       y2="291.933" /><linearGradient
       xlink:href="#z"
       id="d"
       gradientUnits="userSpaceOnUse"
       gradientTransform="translate(-.37 -59.002) scale(1.2007)"
       x1="2.7"
       y1="296.505"
       x2="2.69"
       y2="291.933" /><linearGradient
       xlink:href="#z"
       id="e"
       gradientUnits="userSpaceOnUse"
       gradientTransform="rotate(.427 178009.919 491.325) scale(4.53811)"
       x1="2.7"
       y1="296.505"
       x2="2.69"
       y2="291.933" /><clipPath
       clipPathUnits="userSpaceOnUse"
       id="D"><path
         style="fill:url(#d);fill-opacity:1;stroke-width:.264583;stroke-linecap:round;stroke-linejoin:round;stroke-miterlimit:4;stroke-dasharray:none;paint-order:stroke markers fill;stop-color:#000"
         d="M4.517 296.709c-.082.06-1.487-.59-1.59-.59-.1 0-1.497.672-1.58.613-.082-.06.102-1.597.07-1.694-.032-.096-1.102-1.217-1.071-1.314.03-.097 1.55-.397 1.632-.457.082-.06.817-1.424.919-1.425.102 0 .856 1.352.94 1.412.082.059 1.606.336 1.638.433.032.096-1.021 1.232-1.052 1.33-.03.096.176 1.631.094 1.692z"
         id="path56" /></clipPath><clipPath
       clipPathUnits="userSpaceOnUse"
       id="E"><path
         style="fill:url(#e);fill-opacity:1;stroke-width:.264583;stroke-linecap:round;stroke-linejoin:round;stroke-miterlimit:4;stroke-dasharray:none;paint-order:stroke markers fill;stop-color:#000"
         d="M11.086 2.035c-.384 0-3.2 5.132-3.512 5.358-.31.225-6.063 1.316-6.181 1.681-.12.366 3.89 4.63 4.01 4.996.118.366-.622 6.173-.311 6.399.31.226 5.608-2.27 5.992-2.27.384 0 5.677 2.5 5.988 2.274.311-.226-.425-6.035-.306-6.4.118-.366 4.13-4.63 4.011-4.995-.05-.156-1.179-.449-2.422-.746l-5.214 6.824a1.5 1.5 0 0 1-.584.46l-3.53 1.564a1.5 1.5 0 0 1-2.088-1.602l.59-3.824a1.5 1.5 0 0 1 .29-.68l4.994-6.537c-.77-1.276-1.54-2.502-1.727-2.502z"
         id="path57" /></clipPath><style
       id="current-color-scheme"
       type="text/css">&#10;   .ColorScheme-Text { color:#CBA6F7; } .ColorScheme-Highlight { color:#5294e2; }&#10;  </style><linearGradient
       id="arrongin"
       x1="0%"
       x2="0%"
       y1="0%"
       y2="100%"><stop
         offset="0%"
         style="stop-color:#dd9b44; stop-opacity:1"
         id="stop1-1" /><stop
         offset="100%"
         style="stop-color:#ad6c16; stop-opacity:1"
         id="stop2-7" /></linearGradient><linearGradient
       id="aurora"
       x1="0%"
       x2="0%"
       y1="0%"
       y2="100%"><stop
         offset="0%"
         style="stop-color:#09D4DF; stop-opacity:1"
         id="stop3-6" /><stop
         offset="100%"
         style="stop-color:#9269F4; stop-opacity:1"
         id="stop4-2" /></linearGradient><linearGradient
       id="fitdance"
       x1="0%"
       x2="0%"
       y1="0%"
       y2="100%"><stop
         offset="0%"
         style="stop-color:#1AD6AB; stop-opacity:1"
         id="stop5-5" /><stop
         offset="100%"
         style="stop-color:#329DB6; stop-opacity:1"
         id="stop6-4" /></linearGradient><linearGradient
       id="oomox"
       x1="0%"
       x2="0%"
       y1="0%"
       y2="100%"><stop
         offset="0%"
         style="stop-color:#efefe7; stop-opacity:1"
         id="stop7-4" /><stop
         offset="100%"
         style="stop-color:#8f8f8b; stop-opacity:1"
         id="stop8-6" /></linearGradient><linearGradient
       id="rainblue"
       x1="0%"
       x2="0%"
       y1="0%"
       y2="100%"><stop
         offset="0%"
         style="stop-color:#00F260; stop-opacity:1"
         id="stop9-5" /><stop
         offset="100%"
         style="stop-color:#0575E6; stop-opacity:1"
         id="stop10-3" /></linearGradient><linearGradient
       id="sunrise"
       x1="0%"
       x2="0%"
       y1="0%"
       y2="100%"><stop
         offset="0%"
         style="stop-color: #FF8501; stop-opacity:1"
         id="stop11-9" /><stop
         offset="100%"
         style="stop-color: #FFCB01; stop-opacity:1"
         id="stop12-9" /></linearGradient><linearGradient
       id="telinkrin"
       x1="0%"
       x2="0%"
       y1="0%"
       y2="100%"><stop
         offset="0%"
         style="stop-color: #b2ced6; stop-opacity:1"
         id="stop13-7" /><stop
         offset="100%"
         style="stop-color: #6da5b7; stop-opacity:1"
         id="stop14-4" /></linearGradient><linearGradient
       id="60spsycho"
       x1="0%"
       x2="0%"
       y1="0%"
       y2="100%"><stop
         offset="0%"
         style="stop-color: #df5940; stop-opacity:1"
         id="stop15-2" /><stop
         offset="25%"
         style="stop-color: #d8d15f; stop-opacity:1"
         id="stop16-3" /><stop
         offset="50%"
         style="stop-color: #e9882a; stop-opacity:1"
         id="stop17-3" /><stop
         offset="100%"
         style="stop-color: #279362; stop-opacity:1"
         id="stop18-6" /></linearGradient><linearGradient
       id="90ssummer"
       x1="0%"
       x2="0%"
       y1="0%"
       y2="100%"><stop
         offset="0%"
         style="stop-color: #f618c7; stop-opacity:1"
         id="stop19-1" /><stop
         offset="20%"
         style="stop-color: #94ffab; stop-opacity:1"
         id="stop20-4" /><stop
         offset="50%"
         style="stop-color: #fbfd54; stop-opacity:1"
         id="stop21-1" /><stop
         offset="100%"
         style="stop-color: #0f83ae; stop-opacity:1"
         id="stop22-4" /></linearGradient></defs><path
     d="m 2.9123224,0.588409 c -2.333e-4,0 -3.483e-4,5.5e-5 -6.966e-4,4.18e-4 -3.482e-4,5.8e-5 -3.482e-4,3.48e-4 -3.482e-4,5.23e-4 -3.483e-4,1.74e-4 -3.483e-4,4.52e-4 -6.966e-4,6.26e-4 -3.484e-4,1.74e-4 -3.484e-4,1.74e-4 -6.967e-4,4.18e-4 -0.2937574,0.630433 -0.5207482,1.272925 -0.6498129,1.666614 -0.4245741,3.48e-4 -1.1238638,0.01645 -1.79036409,0.102958 -5.568e-5,2.32e-4 -1.1492e-4,3.48e-4 1.1848e-4,5.22e-4 -5.924e-5,4.18e-4 2.2984e-4,5.92e-4 3.4831e-4,7.67e-4 5.924e-5,4.18e-4 2.334e-4,5.22e-4 3.4832e-4,6.26e-4 5.924e-5,4.18e-4 1.1492e-4,3.49e-4 2.334e-4,5.23e-4 C 0.97955013,2.836606 1.5205036,3.251028 1.8550477,3.495441 1.7241337,3.899322 1.523318,4.56943 1.3996311,5.230068 c 1.742e-4,1.15e-4 2.299e-4,1.74e-4 6.967e-4,0 3.483e-4,1.74e-4 6.965e-4,-5.9e-5 6.965e-4,-1.16e-4 3.483e-4,5.7e-5 6.966e-4,-5.9e-5 6.966e-4,-1.16e-4 3.483e-4,5.7e-5 3.483e-4,5.7e-5 6.966e-4,0 C 2.0106706,4.89246 2.5720069,4.506152 2.9078329,4.26351 3.2515025,4.512831 3.826858,4.910841 4.4168773,5.232591 c 1.742e-4,-1.16e-4 1.742e-4,-3.47e-4 1.15e-4,-6.27e-4 2.334e-4,-2.32e-4 1.184e-4,-5.92e-4 1.184e-4,-7.31e-4 1.742e-4,-3.48e-4 1.15e-4,-6.27e-4 1.15e-4,-7.31e-4 C 4.4173998,5.230153 4.417459,5.230084 4.417459,5.22984 4.284556,4.547098 4.0905323,3.89384 3.9635436,3.499472 4.3068685,3.24966 4.8630464,2.825614 5.351343,2.363929 5.3512838,2.363755 5.3511688,2.363581 5.3506464,2.363511 5.3504722,2.363163 5.350298,2.363163 5.3499497,2.363093 5.3497165,2.362861 5.3492532,2.362745 5.3492532,2.362675 5.3490198,2.362443 5.3490198,2.362257 5.3489049,2.362153 4.6585352,2.277577 3.9773644,2.260287 3.5630479,2.259195 3.4315486,1.855466 3.2000229,1.195449 2.9118592,0.588448 Z"
     style="fill:#ffffff;stroke-width:0.264591"
     class="ColorScheme-Text"
     id="path22" /></svg>
