<?xml version="1.0" encoding="UTF-8" standalone="no"?>
<svg
   width="22"
   height="22"
   viewBox="0 0 5.821 5.821"
   version="1.1"
   id="svg9"
   sodipodi:docname="xopp-tool-math-tex.svg"
   inkscape:version="1.3 (0e150ed6c4, 2023-07-21)"
   xml:space="preserve"
   xmlns:inkscape="http://www.inkscape.org/namespaces/inkscape"
   xmlns:sodipodi="http://sodipodi.sourceforge.net/DTD/sodipodi-0.dtd"
   xmlns="http://www.w3.org/2000/svg"
   xmlns:svg="http://www.w3.org/2000/svg"
   xmlns:ns1="http://www.iki.fi/pav/software/textext/"><sodipodi:namedview
     id="namedview9"
     pagecolor="#505050"
     bordercolor="#eeeeee"
     borderopacity="1"
     inkscape:showpageshadow="0"
     inkscape:pageopacity="0"
     inkscape:pagecheckerboard="0"
     inkscape:deskcolor="#505050"
     inkscape:zoom="7.0397725"
     inkscape:cx="13.849879"
     inkscape:cy="20.242131"
     inkscape:window-width="1278"
     inkscape:window-height="1401"
     inkscape:window-x="1266"
     inkscape:window-y="0"
     inkscape:window-maximized="0"
     inkscape:current-layer="g810" /><defs
     id="defs8"><linearGradient
       id="a"><stop
         offset="0"
         style="stop-color:#3689e6;stop-opacity:1"
         id="stop1" /><stop
         offset="1"
         style="stop-color:#64baff;stop-opacity:1"
         id="stop2" /></linearGradient><linearGradient
       id="c"><stop
         offset="0"
         style="stop-color:#f9f9f9;stop-opacity:1"
         id="stop3" /><stop
         offset="1"
         style="stop-color:#d8d8d8;stop-opacity:1"
         id="stop4" /></linearGradient><linearGradient
       id="b"><stop
         offset="0"
         style="stop-color:#efdfc4;stop-opacity:1"
         id="stop5" /><stop
         offset="1"
         style="stop-color:#e7c591;stop-opacity:1"
         id="stop6" /></linearGradient><linearGradient
       id="d"><stop
         offset="0"
         style="stop-color:#9bdb4d;stop-opacity:1"
         id="stop7" /><stop
         offset="1"
         style="stop-color:#68b723;stop-opacity:1"
         id="stop8" /></linearGradient></defs><g
     transform="matrix(0.352778,0,0,0.352778,-1.9325835,1.2283759)"
     ns1:version="1.9.0"
     ns1:texconverter="pdflatex"
     ns1:pdfconverter="inkscape"
     ns1:text="$\\emptyset $"
     ns1:preamble="C:\Users\miche\AppData\Roaming\inkscape\extensions\textext\default_packages.tex"
     ns1:scale="1.0"
     ns1:alignment="middle center"
     ns1:stroke-to-path="0"
     ns1:inkscapeversion="1.3"
     id="g810"
     ns1:jacobian_sqrt="0.352778"><defs
       id="id-e4881e49-f02e-4ee1-bbee-4c1853ac1082"><g
         id="id-cfb6b89a-c53c-4284-8221-a17c37c85681"><g
           id="id-5f68da19-9b1e-484d-bbc2-9b5acc718fc7" /><g
           id="id-5b933682-fa1a-4523-8a91-3ed09fa969f6"><path
             d="m 3.875,-7.5 c 0,-0.109375 -0.09375,-0.203125 -0.203125,-0.203125 -0.15625,0 -0.1875,0.109375 -0.25,0.328125 -0.109375,0.390625 -0.015625,0.046875 -0.125,0.453125 -0.109375,-0.0625 -0.4375,-0.21875 -0.796875,-0.21875 -0.578125,0 -1.21875,0.296875 -1.59375,1.0625 -0.390625,0.8125 -0.4375,1.71875 -0.4375,2.640625 0,0.625 0,2.421875 0.859375,3.203125 -0.21875,0.765625 -0.21875,0.78125 -0.21875,0.8125 0,0.109375 0.078125,0.203125 0.203125,0.203125 0.140625,0 0.171875,-0.109375 0.234375,-0.328125 0.125,-0.390625 0.015625,-0.046875 0.125,-0.4375 0.234375,0.125 0.546875,0.203125 0.8125,0.203125 1.109375,0 1.546875,-0.9375 1.734375,-1.421875 C 4.46875,-1.890625 4.5,-2.71875 4.5,-3.4375 c 0,-0.734375 0,-2.390625 -0.859375,-3.21875 z m -2.40625,6.796875 c -0.328125,-0.6875 -0.328125,-1.90625 -0.328125,-2.859375 0,-0.796875 0,-1.484375 0.140625,-2.125 0.1875,-0.9375 0.765625,-1.234375 1.21875,-1.234375 0.1875,0 0.453125,0.0625 0.703125,0.28125 z m 2.046875,-5.53125 C 3.84375,-5.65625 3.84375,-4.5 3.84375,-3.5625 c 0,0.734375 0,1.46875 -0.125,2.140625 C 3.53125,-0.375 3.015625,0 2.484375,0 2.25,0 2.015625,-0.078125 1.78125,-0.296875 Z m 0,0"
             id="id-155569ef-a744-405b-a507-dc715d5ce9b1" /></g></g></defs><path
       d="M 9.228291,10.768391 V 9.2683488 L 14.103427,4.7682228 9.228291,0.26809679 V -1.2319452 h 9.000252 v 2.250063 h -5.418902 l 4.031363,3.750105 -4.031363,3.750105 h 5.418902 v 2.2500632 z"
       id="path1-7"
       style="stroke-width:0.0187505;fill:#ffffff" /></g></svg>
