<?xml version="1.0" encoding="UTF-8" standalone="no"?>
<svg
   viewBox="0 0 5.821 5.821"
   height="22"
   width="22"
   version="1.1"
   id="svg8"
   sodipodi:docname="xopp-page-delete.svg"
   inkscape:version="1.3 (0e150ed6c4, 2023-07-21)"
   xml:space="preserve"
   xmlns:inkscape="http://www.inkscape.org/namespaces/inkscape"
   xmlns:sodipodi="http://sodipodi.sourceforge.net/DTD/sodipodi-0.dtd"
   xmlns:xlink="http://www.w3.org/1999/xlink"
   xmlns="http://www.w3.org/2000/svg"
   xmlns:svg="http://www.w3.org/2000/svg"><sodipodi:namedview
     id="namedview8"
     pagecolor="#505050"
     bordercolor="#eeeeee"
     borderopacity="1"
     inkscape:showpageshadow="0"
     inkscape:pageopacity="0"
     inkscape:pagecheckerboard="0"
     inkscape:deskcolor="#505050"
     inkscape:zoom="5.3636363"
     inkscape:cx="-12.677966"
     inkscape:cy="48.567797"
     inkscape:window-width="1278"
     inkscape:window-height="1401"
     inkscape:window-x="1273"
     inkscape:window-y="0"
     inkscape:window-maximized="0"
     inkscape:current-layer="svg8" /><defs
     id="defs4"><linearGradient
       id="a"><stop
         style="stop-color:#ff8c82;stop-opacity:1"
         offset="0"
         id="stop1" /><stop
         style="stop-color:#ed5353;stop-opacity:1"
         offset="1"
         id="stop2" /></linearGradient><linearGradient
       id="b"><stop
         style="stop-color:#d4d4d4;stop-opacity:1"
         offset="0"
         id="stop3" /><stop
         style="stop-color:#fafafa;stop-opacity:1"
         offset="1"
         id="stop4" /></linearGradient><linearGradient
       xlink:href="#a"
       id="d"
       gradientUnits="userSpaceOnUse"
       gradientTransform="rotate(45 -341.6 146.849) scale(.28063)"
       x1="14.278"
       y1="10.876"
       x2="32.182"
       y2="29.162" /><linearGradient
       xlink:href="#b"
       id="c"
       x1="12.863"
       y1="23.104"
       x2="13.108"
       y2="2.79"
       gradientUnits="userSpaceOnUse"
       gradientTransform="matrix(.97631 0 0 .98944 -1.315 -1.76)" /></defs><path
     d="m 1.1245114,0.7937727 v 1.3229545 -1.3229545 4.2334546 -0.06284 0.06284 z m 0,4.7626364 q -0.21828745,0 -0.37373465,-0.1554472 Q 0.59532955,5.2455148 0.59532955,5.0272273 V 0.7937727 q 0,-0.2182875 0.1554472,-0.3737347 Q 0.90622395,0.2645909 1.1245114,0.2645909 H 3.2412387 L 4.8287841,1.8521363 V 3.0031068 Q 4.7031034,2.9568034 4.5708079,2.9336517 4.4385125,2.9105 4.2996023,2.9105 V 2.1167272 H 2.9766477 V 0.7937727 H 1.1245114 v 4.2334546 h 1.6801522 q 0.052918,0.1521398 0.1322956,0.2844352 0.079377,0.1322954 0.1852135,0.2447466 z M 3.7439614,5.4241136 3.3735341,5.0536864 3.929175,4.4980455 3.3735341,3.9424045 3.7439614,3.5719773 4.2996023,4.1276182 4.8552432,3.5719773 5.2256704,3.9424045 4.6766443,4.4980455 5.2256704,5.0536864 4.8552432,5.4241136 4.2996023,4.8750875 Z"
     id="path1"
     style="fill:#ffffff;stroke-width:0.00661477" /></svg>
