<?xml version="1.0" encoding="UTF-8" standalone="no"?>
<svg
   viewBox="0 0 5.821 5.821"
   height="22"
   width="22"
   version="1.1"
   id="svg3"
   sodipodi:docname="xopp-select-lasso.svg"
   inkscape:version="1.3 (0e150ed6c4, 2023-07-21)"
   xml:space="preserve"
   xmlns:inkscape="http://www.inkscape.org/namespaces/inkscape"
   xmlns:sodipodi="http://sodipodi.sourceforge.net/DTD/sodipodi-0.dtd"
   xmlns:xlink="http://www.w3.org/1999/xlink"
   xmlns="http://www.w3.org/2000/svg"
   xmlns:svg="http://www.w3.org/2000/svg"><sodipodi:namedview
     id="namedview3"
     pagecolor="#505050"
     bordercolor="#eeeeee"
     borderopacity="1"
     inkscape:showpageshadow="0"
     inkscape:pageopacity="0"
     inkscape:pagecheckerboard="0"
     inkscape:deskcolor="#505050"
     inkscape:zoom="19.911484"
     inkscape:cx="12.706235"
     inkscape:cy="12.178901"
     inkscape:window-width="1278"
     inkscape:window-height="1401"
     inkscape:window-x="1273"
     inkscape:window-y="0"
     inkscape:window-maximized="0"
     inkscape:current-layer="svg3" /><defs
     id="defs2"><linearGradient
       id="a"><stop
         offset="0"
         style="stop-color:#3689e6;stop-opacity:1"
         id="stop1" /><stop
         offset="1"
         style="stop-color:#0d52bf;stop-opacity:.97428107"
         id="stop2" /></linearGradient><linearGradient
       xlink:href="#a"
       id="b"
       x1="20.092"
       y1=".742"
       x2="23.318"
       y2="4.498"
       gradientUnits="userSpaceOnUse"
       gradientTransform="matrix(1.02785 0 0 1.02776 -19.243 .029)" /></defs><path
     d="M 0.80038748,2.678983 0.27120571,2.626065 Q 0.31089431,2.3217854 0.40680855,2.0340428 0.50272275,1.7463002 0.66809208,1.4883241 L 1.1178966,1.7661443 q -0.13229552,0.205058 -0.20836532,0.436575 -0.07607,0.2315171 -0.1091438,0.4762637 z M 1.0385193,4.7692511 Q 0.82023178,4.5575784 0.66147728,4.3029096 0.50272276,4.0482409 0.40350117,3.7638057 L 0.90622388,3.5918216 q 0.079377,0.231517 0.20505792,0.4332676 0.1256807,0.2017506 0.2976648,0.3737346 z M 1.7661443,1.1178966 1.4883239,0.66809199 Q 1.7463,0.50272269 2.0340426,0.40680849 2.3217852,0.31089449 2.6260648,0.27120569 l 0.052918,0.52918181 q -0.2447466,0.033074 -0.4762637,0.1091437 -0.231517,0.07607 -0.4365748,0.2083654 z m 1.1377409,4.4318977 q -0.231517,0 -0.4597267,-0.036381 Q 2.2159489,5.4770318 2.0042761,5.3910398 L 2.1762602,4.888317 Q 2.3548591,4.94785 2.533458,4.984231 2.7120568,5.020612 2.9038852,5.020612 Z M 4.3988239,1.4089466 Q 4.2268398,1.2369625 4.0250892,1.1112818 3.8233386,0.9856011 3.5918216,0.9062239 L 3.7638057,0.40350109 q 0.2844352,0.099222 0.539104,0.2579762 Q 4.5575784,0.8202318 4.7692511,1.0385193 Z M 4.9676943,5.3381216 4.2268398,4.597267 V 5.2852034 H 3.697658 V 3.6976579 H 5.2852034 V 4.2268398 H 4.5972671 l 0.7408545,0.7408545 z m 0.052918,-2.4342364 q 0,-0.1918284 -0.036381,-0.3704272 Q 4.9478503,2.3548591 4.8883173,2.1762602 L 5.39104,2.0042761 q 0.085992,0.2116728 0.1223733,0.4398824 0.036381,0.2282097 0.036381,0.4597267 z"
     id="path1"
     style="stroke-width:0.00661477;fill:#ffffff" /></svg>
