<?xml version="1.0" encoding="UTF-8" standalone="no"?>
<svg
   viewBox="0 0 5.821 5.821"
   height="22"
   width="22"
   version="1.1"
   id="svg3"
   sodipodi:docname="xopp-select-rect.svg"
   inkscape:version="1.3 (0e150ed6c4, 2023-07-21)"
   xml:space="preserve"
   xmlns:inkscape="http://www.inkscape.org/namespaces/inkscape"
   xmlns:sodipodi="http://sodipodi.sourceforge.net/DTD/sodipodi-0.dtd"
   xmlns:xlink="http://www.w3.org/1999/xlink"
   xmlns="http://www.w3.org/2000/svg"
   xmlns:svg="http://www.w3.org/2000/svg"><sodipodi:namedview
     id="namedview3"
     pagecolor="#505050"
     bordercolor="#eeeeee"
     borderopacity="1"
     inkscape:showpageshadow="0"
     inkscape:pageopacity="0"
     inkscape:pagecheckerboard="0"
     inkscape:deskcolor="#505050"
     inkscape:zoom="28.159091"
     inkscape:cx="11.150928"
     inkscape:cy="13.761098"
     inkscape:window-width="1278"
     inkscape:window-height="1401"
     inkscape:window-x="1273"
     inkscape:window-y="0"
     inkscape:window-maximized="0"
     inkscape:current-layer="svg3" /><defs
     id="defs2"><linearGradient
       id="a"><stop
         offset="0"
         style="stop-color:#3689e6;stop-opacity:1"
         id="stop1" /><stop
         offset="1"
         style="stop-color:#0d52bf;stop-opacity:.97428107"
         id="stop2" /></linearGradient><linearGradient
       gradientUnits="userSpaceOnUse"
       y2="5.101"
       x2="5.446"
       y1=".429"
       x1=".375"
       id="b"
       xlink:href="#a"
       gradientTransform="matrix(.96521 0 0 1.02813 .101 .119)" /></defs><path
     d="m 1.0583636,4.7626363 v 0.5291818 q -0.21828755,0 -0.37373465,-0.1554472 Q 0.52918185,4.9809238 0.52918185,4.7626363 Z M 0.52918185,4.2334545 V 3.7042727 H 1.0583636 v 0.5291818 z m 0,-1.0583636 V 2.6459091 H 1.0583636 v 0.5291818 z m 0,-1.0583637 V 1.5875454 H 1.0583636 V 2.1167272 Z M 1.0583636,1.0583636 H 0.52918185 q 0,-0.21828745 0.1554471,-0.37373465 0.1554471,-0.1554471 0.37373455,-0.1554471 z M 1.5875455,5.2918181 V 4.7626363 h 0.5291818 v 0.5291818 z m 0,-4.2334545 V 0.52918185 H 2.1167273 V 1.0583636 Z M 2.6459091,5.2918181 V 4.7626363 h 0.5291818 v 0.5291818 z m 0,-4.2334545 V 0.52918185 H 3.1750909 V 1.0583636 Z M 3.7042727,5.2918181 V 4.7626363 h 0.5291818 v 0.5291818 z m 0,-4.2334545 V 0.52918185 H 4.2334545 V 1.0583636 Z m 1.0583636,3.7042728 h 0.5291818 q 0,0.2182875 -0.1554472,0.3737346 -0.1554471,0.1554472 -0.3737346,0.1554472 z m 0,-0.5291818 V 3.7042727 h 0.5291818 v 0.5291818 z m 0,-1.0583636 V 2.6459091 h 0.5291818 v 0.5291818 z m 0,-1.0583637 V 1.5875454 h 0.5291818 v 0.5291818 z m 0,-1.0583636 V 0.52918185 q 0.2182875,0 0.3737346,0.1554471 0.1554472,0.1554472 0.1554472,0.37373465 z"
     id="path1"
     style="stroke-width:0.00661477;fill:#ffffff" /></svg>
